<svg width="896" height="60" viewBox="0 0 896 60" fill="none" xmlns="http://www.w3.org/2000/svg">
<path d="M0 2H896V50H0V2Z" stroke="#E5E7EB"/>
<g filter="url(#filter0_dd_4470_59510)">
<path d="M307 26C307 12.7452 317.745 2 331 2C344.255 2 355 12.7452 355 26C355 39.2548 344.255 50 331 50C317.745 50 307 39.2548 307 26Z" fill="white"/>
<path d="M319 13H343V40H319V13Z" stroke="#E5E7EB"/>
<g clip-path="url(#clip0_4470_59510)">
<path d="M342.625 26C342.625 19.5781 337.422 14.375 331 14.375C324.578 14.375 319.375 19.5781 319.375 26C319.375 31.8022 323.626 36.6116 329.184 37.4844V29.3605H326.23V26H329.184V23.4388C329.184 20.5255 330.918 18.9162 333.574 18.9162C334.847 18.9162 336.177 19.1431 336.177 19.1431V22.0025H334.711C333.267 22.0025 332.816 22.8988 332.816 23.818V26H336.04L335.525 29.3605H332.816V37.4844C338.374 36.6116 342.625 31.8022 342.625 26Z" fill="#2563EB"/>
</g>
</g>
<g filter="url(#filter1_dd_4470_59510)">
<path d="M387 26C387 12.7452 397.745 2 411 2C424.255 2 435 12.7452 435 26C435 39.2548 424.255 50 411 50C397.745 50 387 39.2548 387 26Z" fill="white"/>
<path d="M399 13H423V40H399V13Z" stroke="#E5E7EB"/>
<path d="M399 14H423V38H399V14Z" stroke="#E5E7EB"/>
<path d="M420.533 21.1118C420.548 21.3249 420.548 21.5382 420.548 21.7514C420.548 28.2539 415.599 35.7463 406.553 35.7463C403.766 35.7463 401.178 34.9391 399 33.5382C399.396 33.5838 399.777 33.5991 400.188 33.5991C402.487 33.5991 404.604 32.8224 406.294 31.4976C404.132 31.4519 402.32 30.0356 401.695 28.0864C402 28.132 402.305 28.1625 402.624 28.1625C403.066 28.1625 403.508 28.1016 403.919 27.995C401.665 27.5381 399.975 25.5585 399.975 23.1676V23.1067C400.629 23.4722 401.391 23.7006 402.198 23.731C400.873 22.8478 400.005 21.3402 400.005 19.6346C400.005 18.7209 400.249 17.8833 400.675 17.1524C403.096 20.1371 406.736 22.0863 410.817 22.2996C410.741 21.9341 410.695 21.5534 410.695 21.1727C410.695 18.462 412.888 16.2539 415.614 16.2539C417.03 16.2539 418.31 16.8478 419.208 17.8072C420.32 17.594 421.386 17.1828 422.33 16.6194C421.964 17.7615 421.188 18.7209 420.167 19.33C421.157 19.2235 422.117 18.9493 423 18.5686C422.33 19.5432 421.492 20.4112 420.533 21.1118Z" fill="#60A5FA"/>
</g>
<g filter="url(#filter2_dd_4470_59510)">
<path d="M467 24.5C467 12.0736 477.074 2 489.5 2C501.926 2 512 12.0736 512 24.5V27.5C512 39.9264 501.926 50 489.5 50C477.074 50 467 39.9264 467 27.5V24.5Z" fill="white"/>
<path d="M479 13H500V40H479V13Z" stroke="#E5E7EB"/>
<g clip-path="url(#clip1_4470_59510)">
<path d="M489.505 20.6098C486.524 20.6098 484.119 23.0145 484.119 25.9957C484.119 28.977 486.524 31.3816 489.505 31.3816C492.486 31.3816 494.891 28.977 494.891 25.9957C494.891 23.0145 492.486 20.6098 489.505 20.6098ZM489.505 29.4973C487.578 29.4973 486.003 27.927 486.003 25.9957C486.003 24.0645 487.574 22.4941 489.505 22.4941C491.436 22.4941 493.006 24.0645 493.006 25.9957C493.006 27.927 491.431 29.4973 489.505 29.4973ZM496.367 20.3895C496.367 21.0879 495.805 21.6457 495.111 21.6457C494.413 21.6457 493.855 21.0832 493.855 20.3895C493.855 19.6957 494.417 19.1332 495.111 19.1332C495.805 19.1332 496.367 19.6957 496.367 20.3895ZM499.934 21.6645C499.855 19.9816 499.47 18.491 498.238 17.2629C497.009 16.0348 495.519 15.6504 493.836 15.566C492.102 15.4676 486.903 15.4676 485.169 15.566C483.491 15.6457 482 16.0301 480.767 17.2582C479.534 18.4863 479.155 19.977 479.07 21.6598C478.972 23.3941 478.972 28.5926 479.07 30.327C479.15 32.0098 479.534 33.5004 480.767 34.7285C482 35.9566 483.486 36.341 485.169 36.4254C486.903 36.5238 492.102 36.5238 493.836 36.4254C495.519 36.3457 497.009 35.9613 498.238 34.7285C499.466 33.5004 499.85 32.0098 499.934 30.327C500.033 28.5926 500.033 23.3988 499.934 21.6645ZM497.694 32.1879C497.328 33.1066 496.62 33.8145 495.697 34.1848C494.314 34.7332 491.033 34.6066 489.505 34.6066C487.977 34.6066 484.691 34.7285 483.313 34.1848C482.394 33.8191 481.686 33.1113 481.316 32.1879C480.767 30.8051 480.894 27.5238 480.894 25.9957C480.894 24.4676 480.772 21.1816 481.316 19.8035C481.681 18.8848 482.389 18.177 483.313 17.8066C484.695 17.2582 487.977 17.3848 489.505 17.3848C491.033 17.3848 494.319 17.2629 495.697 17.8066C496.616 18.1723 497.324 18.8801 497.694 19.8035C498.242 21.1863 498.116 24.4676 498.116 25.9957C498.116 27.5238 498.242 30.8098 497.694 32.1879Z" fill="#DB2777"/>
</g>
</g>
<g filter="url(#filter3_dd_4470_59510)">
<path d="M544 24.5C544 12.0736 554.074 2 566.5 2C578.926 2 589 12.0736 589 24.5V27.5C589 39.9264 578.926 50 566.5 50C554.074 50 544 39.9264 544 27.5V24.5Z" fill="white"/>
<path d="M556 13H577V40H556V13Z" stroke="#E5E7EB"/>
<path d="M556 14H577V38H556V14Z" stroke="#E5E7EB"/>
<path d="M575.5 15.5H557.495C556.67 15.5 556 16.1797 556 17.0141V34.9859C556 35.8203 556.67 36.5 557.495 36.5H575.5C576.325 36.5 577 35.8203 577 34.9859V17.0141C577 16.1797 576.325 15.5 575.5 15.5ZM562.347 33.5H559.234V23.4781H562.352V33.5H562.347ZM560.791 22.1094C559.792 22.1094 558.986 21.2984 558.986 20.3047C558.986 19.3109 559.792 18.5 560.791 18.5C561.784 18.5 562.595 19.3109 562.595 20.3047C562.595 21.3031 561.789 22.1094 560.791 22.1094ZM574.014 33.5H570.902V28.625C570.902 27.4625 570.878 25.9672 569.284 25.9672C567.662 25.9672 567.414 27.2328 567.414 28.5406V33.5H564.302V23.4781H567.288V24.8469H567.33C567.747 24.0594 568.764 23.2297 570.278 23.2297C573.428 23.2297 574.014 25.3062 574.014 28.0062V33.5Z" fill="#1D4ED8"/>
</g>
<defs>
<filter id="filter0_dd_4470_59510" x="301" y="0" width="60" height="60" filterUnits="userSpaceOnUse" color-interpolation-filters="sRGB">
<feFlood flood-opacity="0" result="BackgroundImageFix"/>
<feColorMatrix in="SourceAlpha" type="matrix" values="0 0 0 0 0 0 0 0 0 0 0 0 0 0 0 0 0 0 127 0" result="hardAlpha"/>
<feOffset dy="4"/>
<feGaussianBlur stdDeviation="3"/>
<feColorMatrix type="matrix" values="0 0 0 0 0 0 0 0 0 0 0 0 0 0 0 0 0 0 0.1 0"/>
<feBlend mode="normal" in2="BackgroundImageFix" result="effect1_dropShadow_4470_59510"/>
<feColorMatrix in="SourceAlpha" type="matrix" values="0 0 0 0 0 0 0 0 0 0 0 0 0 0 0 0 0 0 127 0" result="hardAlpha"/>
<feOffset dy="2"/>
<feGaussianBlur stdDeviation="2"/>
<feColorMatrix type="matrix" values="0 0 0 0 0 0 0 0 0 0 0 0 0 0 0 0 0 0 0.1 0"/>
<feBlend mode="normal" in2="effect1_dropShadow_4470_59510" result="effect2_dropShadow_4470_59510"/>
<feBlend mode="normal" in="SourceGraphic" in2="effect2_dropShadow_4470_59510" result="shape"/>
</filter>
<filter id="filter1_dd_4470_59510" x="381" y="0" width="60" height="60" filterUnits="userSpaceOnUse" color-interpolation-filters="sRGB">
<feFlood flood-opacity="0" result="BackgroundImageFix"/>
<feColorMatrix in="SourceAlpha" type="matrix" values="0 0 0 0 0 0 0 0 0 0 0 0 0 0 0 0 0 0 127 0" result="hardAlpha"/>
<feOffset dy="4"/>
<feGaussianBlur stdDeviation="3"/>
<feColorMatrix type="matrix" values="0 0 0 0 0 0 0 0 0 0 0 0 0 0 0 0 0 0 0.1 0"/>
<feBlend mode="normal" in2="BackgroundImageFix" result="effect1_dropShadow_4470_59510"/>
<feColorMatrix in="SourceAlpha" type="matrix" values="0 0 0 0 0 0 0 0 0 0 0 0 0 0 0 0 0 0 127 0" result="hardAlpha"/>
<feOffset dy="2"/>
<feGaussianBlur stdDeviation="2"/>
<feColorMatrix type="matrix" values="0 0 0 0 0 0 0 0 0 0 0 0 0 0 0 0 0 0 0.1 0"/>
<feBlend mode="normal" in2="effect1_dropShadow_4470_59510" result="effect2_dropShadow_4470_59510"/>
<feBlend mode="normal" in="SourceGraphic" in2="effect2_dropShadow_4470_59510" result="shape"/>
</filter>
<filter id="filter2_dd_4470_59510" x="461" y="0" width="57" height="60" filterUnits="userSpaceOnUse" color-interpolation-filters="sRGB">
<feFlood flood-opacity="0" result="BackgroundImageFix"/>
<feColorMatrix in="SourceAlpha" type="matrix" values="0 0 0 0 0 0 0 0 0 0 0 0 0 0 0 0 0 0 127 0" result="hardAlpha"/>
<feOffset dy="4"/>
<feGaussianBlur stdDeviation="3"/>
<feColorMatrix type="matrix" values="0 0 0 0 0 0 0 0 0 0 0 0 0 0 0 0 0 0 0.1 0"/>
<feBlend mode="normal" in2="BackgroundImageFix" result="effect1_dropShadow_4470_59510"/>
<feColorMatrix in="SourceAlpha" type="matrix" values="0 0 0 0 0 0 0 0 0 0 0 0 0 0 0 0 0 0 127 0" result="hardAlpha"/>
<feOffset dy="2"/>
<feGaussianBlur stdDeviation="2"/>
<feColorMatrix type="matrix" values="0 0 0 0 0 0 0 0 0 0 0 0 0 0 0 0 0 0 0.1 0"/>
<feBlend mode="normal" in2="effect1_dropShadow_4470_59510" result="effect2_dropShadow_4470_59510"/>
<feBlend mode="normal" in="SourceGraphic" in2="effect2_dropShadow_4470_59510" result="shape"/>
</filter>
<filter id="filter3_dd_4470_59510" x="538" y="0" width="57" height="60" filterUnits="userSpaceOnUse" color-interpolation-filters="sRGB">
<feFlood flood-opacity="0" result="BackgroundImageFix"/>
<feColorMatrix in="SourceAlpha" type="matrix" values="0 0 0 0 0 0 0 0 0 0 0 0 0 0 0 0 0 0 127 0" result="hardAlpha"/>
<feOffset dy="4"/>
<feGaussianBlur stdDeviation="3"/>
<feColorMatrix type="matrix" values="0 0 0 0 0 0 0 0 0 0 0 0 0 0 0 0 0 0 0.1 0"/>
<feBlend mode="normal" in2="BackgroundImageFix" result="effect1_dropShadow_4470_59510"/>
<feColorMatrix in="SourceAlpha" type="matrix" values="0 0 0 0 0 0 0 0 0 0 0 0 0 0 0 0 0 0 127 0" result="hardAlpha"/>
<feOffset dy="2"/>
<feGaussianBlur stdDeviation="2"/>
<feColorMatrix type="matrix" values="0 0 0 0 0 0 0 0 0 0 0 0 0 0 0 0 0 0 0.1 0"/>
<feBlend mode="normal" in2="effect1_dropShadow_4470_59510" result="effect2_dropShadow_4470_59510"/>
<feBlend mode="normal" in="SourceGraphic" in2="effect2_dropShadow_4470_59510" result="shape"/>
</filter>
<clipPath id="clip0_4470_59510">
<path d="M319 14H343V38H319V14Z" fill="white"/>
</clipPath>
<clipPath id="clip1_4470_59510">
<path d="M479 14H500V38H479V14Z" fill="white"/>
</clipPath>
</defs>
</svg>
