<svg width="15" height="16" viewBox="0 0 15 16" fill="none" xmlns="http://www.w3.org/2000/svg">
<g clip-path="url(#clip0_4470_59435)">
<g clip-path="url(#clip1_4470_59435)">
<path d="M6.57188 1.01272C7.11562 1.10334 7.48438 1.61897 7.39375 2.16272L7.0875 4.00022H10.0594L10.4187 1.83459C10.5094 1.29084 11.025 0.922093 11.5688 1.01272C12.1125 1.10334 12.4812 1.61897 12.3906 2.16272L12.0875 4.00022H13.9062C14.4594 4.00022 14.9062 4.44709 14.9062 5.00022C14.9062 5.55334 14.4594 6.00022 13.9062 6.00022H11.7531L11.0875 10.0002H12.9062C13.4594 10.0002 13.9062 10.4471 13.9062 11.0002C13.9062 11.5533 13.4594 12.0002 12.9062 12.0002H10.7531L10.3938 14.1658C10.3031 14.7096 9.7875 15.0783 9.24375 14.9877C8.7 14.8971 8.33125 14.3815 8.42188 13.8377L8.72813 12.0033H5.75313L5.39375 14.169C5.30313 14.7127 4.7875 15.0815 4.24375 14.9908C3.7 14.9002 3.33125 14.3846 3.42188 13.8408L3.725 12.0002H1.90625C1.35312 12.0002 0.90625 11.5533 0.90625 11.0002C0.90625 10.4471 1.35312 10.0002 1.90625 10.0002H4.05938L4.725 6.00022H2.90625C2.35312 6.00022 1.90625 5.55334 1.90625 5.00022C1.90625 4.44709 2.35312 4.00022 2.90625 4.00022H5.05937L5.41875 1.83459C5.50937 1.29084 6.025 0.922093 6.56875 1.01272H6.57188ZM6.75313 6.00022L6.0875 10.0002H9.05937L9.725 6.00022H6.75313Z" fill="#3B82F6"/>
</g>
</g>
<defs>
<clipPath id="clip0_4470_59435">
<rect width="14" height="16" fill="white" transform="translate(0.90625)"/>
</clipPath>
<clipPath id="clip1_4470_59435">
<path d="M0.90625 0H14.9062V16H0.90625V0Z" fill="white"/>
</clipPath>
</defs>
</svg>
