<svg width="15" height="16" viewBox="0 0 15 16" fill="none" xmlns="http://www.w3.org/2000/svg">
<g clip-path="url(#clip0_4463_59332)">
<path d="M13.8938 8.70664C14.2844 8.31602 14.2844 7.68164 13.8938 7.29102L8.89375 2.29102C8.50313 1.90039 7.86875 1.90039 7.47813 2.29102C7.0875 2.68164 7.0875 3.31602 7.47813 3.70664L10.775 7.00039H1.1875C0.634375 7.00039 0.1875 7.44727 0.1875 8.00039C0.1875 8.55352 0.634375 9.00039 1.1875 9.00039H10.7719L7.48125 12.2941C7.09062 12.6848 7.09062 13.3191 7.48125 13.7098C7.87187 14.1004 8.50625 14.1004 8.89688 13.7098L13.8969 8.70977L13.8938 8.70664Z" fill="#1E3A8A"/>
</g>
<defs>
<clipPath id="clip0_4463_59332">
<path d="M0.1875 0H14.1875V16H0.1875V0Z" fill="white"/>
</clipPath>
</defs>
</svg>
