<svg width="15" height="16" viewBox="0 0 15 16" fill="none" xmlns="http://www.w3.org/2000/svg">
<g clip-path="url(#clip0_4470_59444)">
<g clip-path="url(#clip1_4470_59444)">
<path d="M5.03125 2.5C5.03125 1.67188 5.70312 1 6.53125 1H7.53125C8.35938 1 9.03125 1.67188 9.03125 2.5V13.5C9.03125 14.3281 8.35938 15 7.53125 15H6.53125C5.70312 15 5.03125 14.3281 5.03125 13.5V2.5ZM0.03125 8.5C0.03125 7.67188 0.703125 7 1.53125 7H2.53125C3.35938 7 4.03125 7.67188 4.03125 8.5V13.5C4.03125 14.3281 3.35938 15 2.53125 15H1.53125C0.703125 15 0.03125 14.3281 0.03125 13.5V8.5ZM11.5312 3H12.5312C13.3594 3 14.0312 3.67188 14.0312 4.5V13.5C14.0312 14.3281 13.3594 15 12.5312 15H11.5312C10.7031 15 10.0312 14.3281 10.0312 13.5V4.5C10.0312 3.67188 10.7031 3 11.5312 3Z" fill="#22C55E"/>
</g>
</g>
<defs>
<clipPath id="clip0_4470_59444">
<rect width="14" height="16" fill="white" transform="translate(0.03125)"/>
</clipPath>
<clipPath id="clip1_4470_59444">
<path d="M0.03125 0H14.0312V16H0.03125V0Z" fill="white"/>
</clipPath>
</defs>
</svg>
