<svg width="17" height="16" viewBox="0 0 17 16" fill="none" xmlns="http://www.w3.org/2000/svg">
<g clip-path="url(#clip0_4470_59454)">
<path d="M12.8062 0.10577C12.3125 -0.141105 11.7125 0.0588948 11.4656 0.552645C11.2188 1.04639 11.4187 1.64327 11.9094 1.89327L11.9219 1.89952C11.9344 1.90577 11.9563 1.91827 11.9875 1.93702C12.05 1.97452 12.1437 2.03077 12.2594 2.11202C12.4937 2.27452 12.8094 2.52452 13.125 2.86827C13.75 3.54327 14.3594 4.56202 14.3594 5.99952C14.3594 6.55264 14.8062 6.99952 15.3594 6.99952C15.9125 6.99952 16.3594 6.55264 16.3594 5.99952C16.3594 3.93702 15.4688 2.45577 14.5938 1.50889C14.1594 1.03702 13.725 0.69327 13.4 0.46827C13.2344 0.352645 13.0969 0.26827 12.9937 0.208895C12.9437 0.177645 12.9 0.15577 12.8687 0.140145C12.8531 0.13077 12.8406 0.12452 12.8313 0.11827L12.8188 0.11202L12.8125 0.108895H12.8094C12.8094 0.108895 12.8094 0.108895 12.3625 1.00264L12.8062 0.10577ZM4.38125 7.10889C4.575 5.35889 6.05937 3.99952 7.85938 3.99952C9.79375 3.99952 11.3594 5.56514 11.3594 7.49952C11.3594 8.41514 11.0094 9.2464 10.4344 9.8714C9.90312 10.4464 9.35938 11.2808 9.35938 12.3089V12.4995C9.35938 13.3276 8.6875 13.9995 7.85938 13.9995C7.30625 13.9995 6.85938 14.4464 6.85938 14.9995C6.85938 15.5526 7.30625 15.9995 7.85938 15.9995C9.79375 15.9995 11.3594 14.4339 11.3594 12.4995V12.3089C11.3594 12.0026 11.5281 11.6308 11.9031 11.2245C12.8062 10.2464 13.3594 8.93702 13.3594 7.49952C13.3594 4.46202 10.8969 1.99952 7.85938 1.99952C5.02812 1.99952 2.69687 4.14014 2.39375 6.89014C2.33437 7.44015 2.72813 7.9339 3.27813 7.99327C3.82812 8.05264 4.32187 7.6589 4.38125 7.10889ZM1.35938 15.9995C1.62459 15.9995 1.87895 15.8942 2.06648 15.7066C2.25402 15.5191 2.35938 15.2647 2.35938 14.9995C2.35938 14.7343 2.25402 14.4799 2.06648 14.2924C1.87895 14.1049 1.62459 13.9995 1.35938 13.9995C1.09416 13.9995 0.839805 14.1049 0.652268 14.2924C0.464732 14.4799 0.359375 14.7343 0.359375 14.9995C0.359375 15.2647 0.464732 15.5191 0.652268 15.7066C0.839805 15.8942 1.09416 15.9995 1.35938 15.9995ZM6.35938 10.9995C6.35938 10.7343 6.25402 10.4799 6.06648 10.2924C5.87895 10.1049 5.62459 9.99952 5.35938 9.99952C5.09416 9.99952 4.8398 10.1049 4.65227 10.2924C4.46473 10.4799 4.35938 10.7343 4.35938 10.9995C4.35938 11.2647 4.46473 11.5191 4.65227 11.7066C4.8398 11.8942 5.09416 11.9995 5.35938 11.9995C5.62459 11.9995 5.87895 11.8942 6.06648 11.7066C6.25402 11.5191 6.35938 11.2647 6.35938 10.9995ZM1.65313 11.2933C1.2625 11.6839 1.2625 12.3183 1.65313 12.7089L3.65313 14.7089C4.04375 15.0995 4.67812 15.0995 5.06875 14.7089C5.45937 14.3183 5.45937 13.6839 5.06875 13.2933L3.06875 11.2933C2.67812 10.9026 2.04375 10.9026 1.65313 11.2933ZM6.85938 7.49952C6.85938 6.94639 7.30625 6.49952 7.85938 6.49952C8.4125 6.49952 8.85938 6.94639 8.85938 7.49952C8.85938 7.91514 9.19375 8.24952 9.60938 8.24952C10.025 8.24952 10.3594 7.91514 10.3594 7.49952C10.3594 6.11827 9.24063 4.99952 7.85938 4.99952C6.47813 4.99952 5.35938 6.11827 5.35938 7.49952C5.35938 7.91514 5.69375 8.24952 6.10938 8.24952C6.525 8.24952 6.85938 7.91514 6.85938 7.49952Z" fill="#A855F7"/>
</g>
<defs>
<clipPath id="clip0_4470_59454">
<path d="M0.359375 0H16.3594V16H0.359375V0Z" fill="white"/>
</clipPath>
</defs>
</svg>
