<svg width="21" height="16" viewBox="0 0 21 16" fill="none" xmlns="http://www.w3.org/2000/svg">
<g clip-path="url(#clip0_4470_59463)">
<path d="M12.7127 0.0372383C12.1814 -0.115887 11.6283 0.193488 11.4752 0.724738L7.4752 14.7247C7.32207 15.256 7.63145 15.8091 8.1627 15.9622C8.69394 16.1154 9.24707 15.806 9.4002 15.2747L13.4002 1.27474C13.5533 0.743488 13.2439 0.190363 12.7127 0.0372383ZM15.2314 3.79036C14.8408 4.18099 14.8408 4.81536 15.2314 5.20599L18.0221 7.99974L15.2283 10.7935C14.8377 11.1841 14.8377 11.8185 15.2283 12.2091C15.6189 12.5997 16.2533 12.5997 16.6439 12.2091L20.1439 8.70911C20.5346 8.31849 20.5346 7.68411 20.1439 7.29349L16.6439 3.79349C16.2533 3.40286 15.6189 3.40286 15.2283 3.79349L15.2314 3.79036ZM5.64707 3.79036C5.25645 3.39974 4.62207 3.39974 4.23145 3.79036L0.731445 7.29036C0.34082 7.68099 0.34082 8.31536 0.731445 8.70599L4.23145 12.206C4.62207 12.5966 5.25645 12.5966 5.64707 12.206C6.0377 11.8154 6.0377 11.181 5.64707 10.7904L2.85332 7.99974L5.64707 5.20599C6.0377 4.81536 6.0377 4.18099 5.64707 3.79036Z" fill="#EF4444"/>
</g>
<defs>
<clipPath id="clip0_4470_59463">
<path d="M0.4375 0H20.4375V16H0.4375V0Z" fill="white"/>
</clipPath>
</defs>
</svg>
